<svg xmlns="http://www.w3.org/2000/svg" fill="none" enable-background="new 0 0 24 24" viewBox="0 0 24 24" id="icon_trainers">
    <path opacity="0.4" fill="#3071f1" d="M13.98,6.92v0.06c-0.01,0-0.01,0-0.02,0c-0.18,0-0.42,0-0.62,0.05c-1.65,0.25-2.96,1.54-3.25,3.2   
	c-0.01,0.02-0.01,0.05-0.01,0.07c-0.05,0.23-0.06,0.45-0.06,0.62c0,1.43,0.77,2.67,1.92,3.36c-0.93,0.4-1.73,1.07-2.28,1.96
	c-0.16,0.25-0.29,0.5-0.4,0.77H6.75c-0.99,0-1.79-0.8-1.79-1.79v-0.27c0-2.09,1.26-3.88,3.06-4.66C6.87,9.6,6.1,8.36,6.1,6.92
	c0-2.17,1.77-3.94,3.94-3.94C12.21,2.98,13.98,4.75,13.98,6.92z"></path>
    <path fill="#90b2f2" d="M19.04,18.95v0.27c0,0.99-0.8,1.79-1.79,1.79h-6.58c-0.99,0-1.79-0.8-1.79-1.79v-0.27
	c0-0.68,0.13-1.33,0.38-1.94c0.11-0.27,0.24-0.52,0.4-0.77c0.55-0.89,1.35-1.56,2.28-1.96c-1.15-0.69-1.92-1.93-1.92-3.36
	c0-0.17,0.01-0.39,0.06-0.62c0-0.02,0-0.05,0.01-0.07c0.29-1.66,1.6-2.95,3.25-3.2c0.2-0.05,0.44-0.05,0.62-0.05
	c0.01,0,0.01,0,0.02,0c2.16,0.01,3.92,1.77,3.92,3.94c0,1.42-0.76,2.68-1.92,3.37c0.58,0.25,1.11,0.6,1.57,1.06
	C18.51,16.31,19.04,17.59,19.04,18.95z"></path>
</svg>