<svg
        width="100%"
        height="100%"
        viewBox="0 0 160 24"
        fill="none"
        xmlns="http://www.w3.org/2000/svg"
      >
        <path
          d="M15.446 23.0547V12.3692H2.43164V23.0547H0V1.06718H2.43164V10.3485H15.446V1.06718H17.8777V23.0547H15.446Z"
          fill="#121212"
        />
        <path
          d="M33.5862 2.53986C32.4674 2.53986 31.3943 2.59694 30.3668 2.7111C29.3394 2.80243 28.4375 3.14491 27.6612 3.73855C26.8849 4.33219 26.257 5.27973 25.7775 6.58117C25.3209 7.85978 25.0926 9.67494 25.0926 12.0267C25.0926 13.6021 25.1953 14.9378 25.4008 16.0337C25.6291 17.1068 25.926 17.9973 26.2913 18.7051C26.6794 19.3901 27.1361 19.9266 27.6612 20.3148C28.1864 20.7029 28.7572 20.9883 29.3736 21.171C30.0129 21.3308 30.6865 21.4336 31.3943 21.4792C32.1021 21.5021 32.8327 21.5135 33.5862 21.5135C34.3168 21.5135 35.036 21.5021 35.7438 21.4792C36.4516 21.4336 37.1138 21.3308 37.7302 21.171C38.3695 20.9883 38.9518 20.7029 39.4769 20.3148C40.0249 19.9266 40.4815 19.3901 40.8468 18.7051C41.235 17.9973 41.5318 17.1068 41.7373 16.0337C41.9656 14.9378 42.0798 13.6021 42.0798 12.0267C42.0798 9.67494 41.84 7.85978 41.3606 6.58117C40.8811 5.27973 40.2418 4.33219 39.4427 3.73855C38.6664 3.14491 37.7645 2.80243 36.737 2.7111C35.7324 2.59694 34.6821 2.53986 33.5862 2.53986ZM22.5582 12.0267C22.5582 9.56078 22.8436 7.58579 23.4144 6.10169C24.008 4.59476 24.7958 3.44173 25.7775 2.6426C26.7822 1.82064 27.9466 1.28408 29.2709 1.03293C30.618 0.758942 32.0564 0.621948 33.5862 0.621948C35.1159 0.621948 36.543 0.758942 37.8672 1.03293C39.2143 1.28408 40.3788 1.82064 41.3606 2.6426C42.3652 3.44173 43.1529 4.59476 43.7237 6.10169C44.3174 7.58579 44.6142 9.56078 44.6142 12.0267C44.6142 14.4926 44.3174 16.479 43.7237 17.9859C43.1529 19.47 42.3652 20.623 41.3606 21.445C40.3788 22.2441 39.2143 22.7807 37.8672 23.0547C36.543 23.3058 35.1159 23.4314 33.5862 23.4314C32.0564 23.4314 30.618 23.3058 29.2709 23.0547C27.9466 22.7807 26.7822 22.2441 25.7775 21.445C24.7958 20.623 24.008 19.47 23.4144 17.9859C22.8436 16.479 22.5582 14.4926 22.5582 12.0267Z"
          fill="#121212"
        />
        <path
          d="M49.2655 23.0547V1.06718H51.6972V21.0682H64.7801L64.4376 23.0547H49.2655Z"
          fill="#121212"
        />
        <path
          d="M67.4934 23.0547V1.06718H69.9593V23.0547H67.4934Z"
          fill="#121212"
        />
        <path
          d="M93.598 23.0547L88.5634 4.8345L83.8372 23.0547H80.926L74.5216 1.06718H77.056L82.296 20.9998H82.5015L87.3648 1.06718H89.7279L94.9679 20.9998H95.1734L100.037 1.06718H102.64L96.5091 23.0547H93.598Z"
          fill="#121212"
        />
        <path
          d="M106.859 23.0547V1.06718H123.298L122.956 3.01934H109.325V10.691H120.387V12.6431H109.325V21.0682H123.298L122.956 23.0547H106.859Z"
          fill="#121212"
        />
        <path
          d="M126.258 23.0547V1.06718H128.689V21.0682H141.772L141.43 23.0547H126.258Z"
          fill="#121212"
        />
        <path
          d="M144.485 23.0547V1.06718H146.917V21.0682H160L159.658 23.0547H144.485Z"
          fill="#121212"
        />
      </svg>